<svg width="69" height="69" viewBox="0 0 69 69" fill="none" xmlns="http://www.w3.org/2000/svg">
<path d="M63.4374 12.548V31.8254C63.4374 49.3812 51.5153 64.6893 34.4858 69C17.4848 64.7035 5.56274 49.3812 5.56274 31.8254V12.548C18.9502 11.04 26.533 5.9468 34.5001 0C42.4671 5.9468 50.0499 11.04 63.4374 12.548Z" fill="#FFD15C"/>
<path d="M34.5 61.3888C21.6816 57.32 12.8752 45.4263 12.8752 31.8255V18.7653C21.8808 16.802 28.4963 13.1742 34.5 9.03418C40.6317 13.288 47.1192 16.8447 56.1247 18.7795V31.8398C56.1247 45.4263 47.3183 57.32 34.5 61.3888Z" fill="#F8B64C"/>
<path d="M29.7055 46.294L22.5779 39.1664L26.1915 35.5386L29.7055 39.0384L42.8084 25.9497L46.422 29.5633L29.7055 46.294Z" fill="white"/>
</svg>
